<svg width="100" height="125" viewBox="0 0 100 125" fill="none" xmlns="http://www.w3.org/2000/svg">
<path d="M18.6804 3.41891C11.7018 -3.97524 0 1.41517 0 12.024V85.6261C0 92.2535 4.92845 97.6261 11.008 97.6261H59.4093L81.3207 120.836C88.3002 128.229 100.001 122.837 100 112.228L99.9909 38.6261C99.99 31.9986 95.0609 26.6268 88.9814 26.6277L40.5915 26.6348L18.6804 3.41891Z" fill="#40B2E9"/>
<path d="M59.7729 97.2828L59.6249 97.1261H59.4093H11.008C5.24433 97.1261 0.5 92.0188 0.5 85.6261V12.024C0.5 6.91507 3.3116 3.09239 6.93243 1.42447C10.5471 -0.24063 14.9836 0.230424 18.3168 3.76209L40.2278 26.978L40.3759 27.1349L40.5915 27.1348L88.9814 27.1277C94.7451 27.1268 99.4901 32.2334 99.4909 38.6261L99.5 112.228C99.5006 117.337 96.6895 121.16 93.0689 122.829C89.4544 124.494 85.0179 124.024 81.6843 120.493L59.7729 97.2828Z" />
</svg>
